<?xml version="1.0" encoding="UTF-8" standalone="no"?>
<!-- Created with Inkscape (http://www.inkscape.org/) -->

<svg
   xmlns:dc="http://purl.org/dc/elements/1.1/"
   xmlns:cc="http://creativecommons.org/ns#"
   xmlns:rdf="http://www.w3.org/1999/02/22-rdf-syntax-ns#"
   xmlns:svg="http://www.w3.org/2000/svg"
   xmlns="http://www.w3.org/2000/svg"
   xmlns:sodipodi="http://sodipodi.sourceforge.net/DTD/sodipodi-0.dtd"
   xmlns:inkscape="http://www.inkscape.org/namespaces/inkscape"
   version="1.1"
   width="200"
   height="200"
   id="svg2"
   inkscape:version="0.48.4 r9939"
   sodipodi:docname="sharp.svg">
  <metadata
     id="metadata14">
    <rdf:RDF>
      <cc:Work
         rdf:about="">
        <dc:format>image/svg+xml</dc:format>
        <dc:type
           rdf:resource="http://purl.org/dc/dcmitype/StillImage" />
        <dc:title />
      </cc:Work>
    </rdf:RDF>
  </metadata>
  <sodipodi:namedview
     pagecolor="#ffffff"
     bordercolor="#666666"
     borderopacity="1"
     objecttolerance="10"
     gridtolerance="10"
     guidetolerance="10"
     inkscape:pageopacity="0"
     inkscape:pageshadow="2"
     inkscape:window-width="1855"
     inkscape:window-height="1056"
     id="namedview12"
     showgrid="false"
     inkscape:zoom="1.18"
     inkscape:cx="100"
     inkscape:cy="100"
     inkscape:window-x="65"
     inkscape:window-y="24"
     inkscape:window-maximized="1"
     inkscape:current-layer="svg2" />
  <defs
     id="defs4" />
  <path
     style="fill:#000000;fill-opacity:1"
     id="path4149"
     d="m 94.816637,166.77027 0,-23.72021 14.007023,-2.7835 0,23.59919 -14.007023,2.90452 z m 27.579823,-5.73843 -9.62982,1.98674 0,-23.59917 9.62982,-1.93634 0,-9.80274 -9.62982,1.93635 0,-24.11238 -3.94298,0 0,24.84355 -14.007023,2.89946 0,-23.44674 -3.718854,0 0,24.33928 -9.629833,1.94139 0,9.8229 9.629833,-1.93634 0,23.55379 -9.629833,1.93132 0,9.78256 9.629833,-1.93634 0,23.97622 3.718854,0 0,-24.83347 14.007023,-2.77338 0,23.32571 3.94298,0 0,-24.20313 9.62982,-1.94138 0,-9.81786 z"
     inkscape:connector-curvature="0" />
</svg>
